<?xml version="1.0" encoding="utf-8" standalone="no"?>
<!DOCTYPE svg PUBLIC "-//W3C//DTD SVG 1.1//EN"
  "http://www.w3.org/Graphics/SVG/1.1/DTD/svg11.dtd">
<svg xmlns:xlink="http://www.w3.org/1999/xlink" width="424.478125pt" height="406.3104pt" viewBox="0 0 424.478125 406.3104" xmlns="http://www.w3.org/2000/svg" version="1.1">
 <metadata>
  <rdf:RDF xmlns:dc="http://purl.org/dc/elements/1.1/" xmlns:cc="http://creativecommons.org/ns#" xmlns:rdf="http://www.w3.org/1999/02/22-rdf-syntax-ns#">
   <cc:Work>
    <dc:type rdf:resource="http://purl.org/dc/dcmitype/StillImage"/>
    <dc:date>2022-07-28T11:58:03.138030</dc:date>
    <dc:format>image/svg+xml</dc:format>
    <dc:creator>
     <cc:Agent>
      <dc:title>Matplotlib v3.5.1, https://matplotlib.org/</dc:title>
     </cc:Agent>
    </dc:creator>
   </cc:Work>
  </rdf:RDF>
 </metadata>
 <defs>
  <style type="text/css">*{stroke-linejoin: round; stroke-linecap: butt}</style>
 </defs>
 <g id="figure_1">
  <g id="patch_1">
   <path d="M 0 406.3104 
L 424.478125 406.3104 
L 424.478125 0 
L 0 0 
L 0 406.3104 
z
" style="fill: none"/>
  </g>
  <g id="axes_1">
   <g id="patch_2">
    <path d="M 20.878125 287.136 
L 212.084375 287.136 
L 212.084375 7.2 
L 20.878125 7.2 
z
" style="fill: #ffffff"/>
   </g>
   <g id="PathCollection_1">
    <defs>
     <path id="m54bf8f5d47" d="M 0 -1.581139 
L -0.354988 -0.488599 
L -1.503752 -0.488599 
L -0.574382 0.186628 
L -0.92937 1.279168 
L -0 0.603941 
L 0.92937 1.279168 
L 0.574382 0.186628 
L 1.503752 -0.488599 
L 0.354988 -0.488599 
z
" style="stroke: #0000ff"/>
    </defs>
    <g clip-path="url(#p827c7659a8)">
     <use xlink:href="#m54bf8f5d47" x="70.045446" y="42.192" style="fill: #0000ff; stroke: #0000ff"/>
    </g>
   </g>
   <g id="PathCollection_2">
    <g clip-path="url(#p827c7659a8)">
     <use xlink:href="#m54bf8f5d47" x="70.045446" y="182.16" style="fill: #0000ff; stroke: #0000ff"/>
    </g>
   </g>
   <g id="PathCollection_3">
    <g clip-path="url(#p827c7659a8)">
     <use xlink:href="#m54bf8f5d47" x="70.045446" y="252.144" style="fill: #0000ff; stroke: #0000ff"/>
    </g>
   </g>
   <g id="PathCollection_4">
    <g clip-path="url(#p827c7659a8)">
     <use xlink:href="#m54bf8f5d47" x="157.454018" y="91.1808" style="fill: #0000ff; stroke: #0000ff"/>
    </g>
   </g>
   <g id="PathCollection_5">
    <defs>
     <path id="m3f8f65453e" d="M -0 2.236068 
L 1.341641 0 
L 0 -2.236068 
L -1.341641 -0 
z
" style="stroke: #000000"/>
    </defs>
    <g clip-path="url(#p827c7659a8)">
     <use xlink:href="#m3f8f65453e" x="187.500714" y="63.1872" style="stroke: #000000"/>
    </g>
   </g>
   <g id="PathCollection_6">
    <defs>
     <path id="m6383f10a0e" d="M 0 -1.581139 
L -1.369306 -0.790569 
L -1.369306 0.790569 
L -0 1.581139 
L 1.369306 0.790569 
L 1.369306 -0.790569 
z
" style="stroke: #b8860b"/>
    </defs>
    <g clip-path="url(#p827c7659a8)">
     <use xlink:href="#m6383f10a0e" x="146.527946" y="182.16" style="fill: #b8860b; stroke: #b8860b"/>
    </g>
   </g>
   <g id="matplotlib.axis_1">
    <g id="xtick_1">
     <g id="line2d_1">
      <defs>
       <path id="m257c32c30a" d="M 0 0 
L 0 3.5 
" style="stroke: #000000; stroke-width: 0.8"/>
      </defs>
      <g>
       <use xlink:href="#m257c32c30a" x="20.878125" y="287.136" style="stroke: #000000; stroke-width: 0.8"/>
      </g>
     </g>
     <g id="text_1">
      <!-- 8 -->
      <g transform="translate(17.696875 301.734437)scale(0.1 -0.1)">
       <defs>
        <path id="DejaVuSans-38" d="M 2034 2216 
Q 1584 2216 1326 1975 
Q 1069 1734 1069 1313 
Q 1069 891 1326 650 
Q 1584 409 2034 409 
Q 2484 409 2743 651 
Q 3003 894 3003 1313 
Q 3003 1734 2745 1975 
Q 2488 2216 2034 2216 
z
M 1403 2484 
Q 997 2584 770 2862 
Q 544 3141 544 3541 
Q 544 4100 942 4425 
Q 1341 4750 2034 4750 
Q 2731 4750 3128 4425 
Q 3525 4100 3525 3541 
Q 3525 3141 3298 2862 
Q 3072 2584 2669 2484 
Q 3125 2378 3379 2068 
Q 3634 1759 3634 1313 
Q 3634 634 3220 271 
Q 2806 -91 2034 -91 
Q 1263 -91 848 271 
Q 434 634 434 1313 
Q 434 1759 690 2068 
Q 947 2378 1403 2484 
z
M 1172 3481 
Q 1172 3119 1398 2916 
Q 1625 2713 2034 2713 
Q 2441 2713 2670 2916 
Q 2900 3119 2900 3481 
Q 2900 3844 2670 4047 
Q 2441 4250 2034 4250 
Q 1625 4250 1398 4047 
Q 1172 3844 1172 3481 
z
" transform="scale(0.015625)"/>
       </defs>
       <use xlink:href="#DejaVuSans-38"/>
      </g>
     </g>
    </g>
    <g id="xtick_2">
     <g id="line2d_2">
      <g>
       <use xlink:href="#m257c32c30a" x="75.508482" y="287.136" style="stroke: #000000; stroke-width: 0.8"/>
      </g>
     </g>
     <g id="text_2">
      <!-- 10 -->
      <g transform="translate(69.145982 301.734437)scale(0.1 -0.1)">
       <defs>
        <path id="DejaVuSans-31" d="M 794 531 
L 1825 531 
L 1825 4091 
L 703 3866 
L 703 4441 
L 1819 4666 
L 2450 4666 
L 2450 531 
L 3481 531 
L 3481 0 
L 794 0 
L 794 531 
z
" transform="scale(0.015625)"/>
        <path id="DejaVuSans-30" d="M 2034 4250 
Q 1547 4250 1301 3770 
Q 1056 3291 1056 2328 
Q 1056 1369 1301 889 
Q 1547 409 2034 409 
Q 2525 409 2770 889 
Q 3016 1369 3016 2328 
Q 3016 3291 2770 3770 
Q 2525 4250 2034 4250 
z
M 2034 4750 
Q 2819 4750 3233 4129 
Q 3647 3509 3647 2328 
Q 3647 1150 3233 529 
Q 2819 -91 2034 -91 
Q 1250 -91 836 529 
Q 422 1150 422 2328 
Q 422 3509 836 4129 
Q 1250 4750 2034 4750 
z
" transform="scale(0.015625)"/>
       </defs>
       <use xlink:href="#DejaVuSans-31"/>
       <use xlink:href="#DejaVuSans-30" x="63.623047"/>
      </g>
     </g>
    </g>
    <g id="xtick_3">
     <g id="line2d_3">
      <g>
       <use xlink:href="#m257c32c30a" x="130.138839" y="287.136" style="stroke: #000000; stroke-width: 0.8"/>
      </g>
     </g>
     <g id="text_3">
      <!-- 12 -->
      <g transform="translate(123.776339 301.734437)scale(0.1 -0.1)">
       <defs>
        <path id="DejaVuSans-32" d="M 1228 531 
L 3431 531 
L 3431 0 
L 469 0 
L 469 531 
Q 828 903 1448 1529 
Q 2069 2156 2228 2338 
Q 2531 2678 2651 2914 
Q 2772 3150 2772 3378 
Q 2772 3750 2511 3984 
Q 2250 4219 1831 4219 
Q 1534 4219 1204 4116 
Q 875 4013 500 3803 
L 500 4441 
Q 881 4594 1212 4672 
Q 1544 4750 1819 4750 
Q 2544 4750 2975 4387 
Q 3406 4025 3406 3419 
Q 3406 3131 3298 2873 
Q 3191 2616 2906 2266 
Q 2828 2175 2409 1742 
Q 1991 1309 1228 531 
z
" transform="scale(0.015625)"/>
       </defs>
       <use xlink:href="#DejaVuSans-31"/>
       <use xlink:href="#DejaVuSans-32" x="63.623047"/>
      </g>
     </g>
    </g>
    <g id="xtick_4">
     <g id="line2d_4">
      <g>
       <use xlink:href="#m257c32c30a" x="184.769196" y="287.136" style="stroke: #000000; stroke-width: 0.8"/>
      </g>
     </g>
     <g id="text_4">
      <!-- 14 -->
      <g transform="translate(178.406696 301.734437)scale(0.1 -0.1)">
       <defs>
        <path id="DejaVuSans-34" d="M 2419 4116 
L 825 1625 
L 2419 1625 
L 2419 4116 
z
M 2253 4666 
L 3047 4666 
L 3047 1625 
L 3713 1625 
L 3713 1100 
L 3047 1100 
L 3047 0 
L 2419 0 
L 2419 1100 
L 313 1100 
L 313 1709 
L 2253 4666 
z
" transform="scale(0.015625)"/>
       </defs>
       <use xlink:href="#DejaVuSans-31"/>
       <use xlink:href="#DejaVuSans-34" x="63.623047"/>
      </g>
     </g>
    </g>
    <g id="text_5">
     <!-- 2$\Theta$ -->
     <g transform="translate(109.33125 315.412562)scale(0.1 -0.1)">
      <defs>
       <path id="DejaVuSans-398" d="M 1416 2750 
L 3622 2750 
L 3622 2219 
L 1416 2219 
L 1416 2750 
z
M 2522 4238 
Q 1834 4238 1431 3725 
Q 1025 3213 1025 2328 
Q 1025 1447 1429 934 
Q 1834 422 2522 422 
Q 3209 422 3613 934 
Q 4013 1447 4013 2328 
Q 4013 3213 3613 3725 
Q 3209 4238 2522 4238 
z
M 2522 4750 
Q 3503 4750 4090 4092 
Q 4678 3434 4678 2328 
Q 4678 1225 4091 569 
Q 3503 -91 2522 -91 
Q 1538 -91 950 566 
Q 359 1222 359 2328 
Q 359 3434 950 4094 
Q 1538 4750 2522 4750 
z
" transform="scale(0.015625)"/>
      </defs>
      <use xlink:href="#DejaVuSans-32" transform="translate(0 0.78125)"/>
      <use xlink:href="#DejaVuSans-398" transform="translate(63.623047 0.78125)"/>
     </g>
    </g>
   </g>
   <g id="matplotlib.axis_2">
    <g id="ytick_1"/>
    <g id="ytick_2"/>
    <g id="ytick_3"/>
    <g id="ytick_4"/>
    <g id="ytick_5"/>
    <g id="ytick_6"/>
    <g id="ytick_7"/>
    <g id="ytick_8"/>
    <g id="ytick_9"/>
    <g id="text_6">
     <!-- Intensity -->
     <g transform="translate(14.798438 168.9305)rotate(-90)scale(0.1 -0.1)">
      <defs>
       <path id="DejaVuSans-49" d="M 628 4666 
L 1259 4666 
L 1259 0 
L 628 0 
L 628 4666 
z
" transform="scale(0.015625)"/>
       <path id="DejaVuSans-6e" d="M 3513 2113 
L 3513 0 
L 2938 0 
L 2938 2094 
Q 2938 2591 2744 2837 
Q 2550 3084 2163 3084 
Q 1697 3084 1428 2787 
Q 1159 2491 1159 1978 
L 1159 0 
L 581 0 
L 581 3500 
L 1159 3500 
L 1159 2956 
Q 1366 3272 1645 3428 
Q 1925 3584 2291 3584 
Q 2894 3584 3203 3211 
Q 3513 2838 3513 2113 
z
" transform="scale(0.015625)"/>
       <path id="DejaVuSans-74" d="M 1172 4494 
L 1172 3500 
L 2356 3500 
L 2356 3053 
L 1172 3053 
L 1172 1153 
Q 1172 725 1289 603 
Q 1406 481 1766 481 
L 2356 481 
L 2356 0 
L 1766 0 
Q 1100 0 847 248 
Q 594 497 594 1153 
L 594 3053 
L 172 3053 
L 172 3500 
L 594 3500 
L 594 4494 
L 1172 4494 
z
" transform="scale(0.015625)"/>
       <path id="DejaVuSans-65" d="M 3597 1894 
L 3597 1613 
L 953 1613 
Q 991 1019 1311 708 
Q 1631 397 2203 397 
Q 2534 397 2845 478 
Q 3156 559 3463 722 
L 3463 178 
Q 3153 47 2828 -22 
Q 2503 -91 2169 -91 
Q 1331 -91 842 396 
Q 353 884 353 1716 
Q 353 2575 817 3079 
Q 1281 3584 2069 3584 
Q 2775 3584 3186 3129 
Q 3597 2675 3597 1894 
z
M 3022 2063 
Q 3016 2534 2758 2815 
Q 2500 3097 2075 3097 
Q 1594 3097 1305 2825 
Q 1016 2553 972 2059 
L 3022 2063 
z
" transform="scale(0.015625)"/>
       <path id="DejaVuSans-73" d="M 2834 3397 
L 2834 2853 
Q 2591 2978 2328 3040 
Q 2066 3103 1784 3103 
Q 1356 3103 1142 2972 
Q 928 2841 928 2578 
Q 928 2378 1081 2264 
Q 1234 2150 1697 2047 
L 1894 2003 
Q 2506 1872 2764 1633 
Q 3022 1394 3022 966 
Q 3022 478 2636 193 
Q 2250 -91 1575 -91 
Q 1294 -91 989 -36 
Q 684 19 347 128 
L 347 722 
Q 666 556 975 473 
Q 1284 391 1588 391 
Q 1994 391 2212 530 
Q 2431 669 2431 922 
Q 2431 1156 2273 1281 
Q 2116 1406 1581 1522 
L 1381 1569 
Q 847 1681 609 1914 
Q 372 2147 372 2553 
Q 372 3047 722 3315 
Q 1072 3584 1716 3584 
Q 2034 3584 2315 3537 
Q 2597 3491 2834 3397 
z
" transform="scale(0.015625)"/>
       <path id="DejaVuSans-69" d="M 603 3500 
L 1178 3500 
L 1178 0 
L 603 0 
L 603 3500 
z
M 603 4863 
L 1178 4863 
L 1178 4134 
L 603 4134 
L 603 4863 
z
" transform="scale(0.015625)"/>
       <path id="DejaVuSans-79" d="M 2059 -325 
Q 1816 -950 1584 -1140 
Q 1353 -1331 966 -1331 
L 506 -1331 
L 506 -850 
L 844 -850 
Q 1081 -850 1212 -737 
Q 1344 -625 1503 -206 
L 1606 56 
L 191 3500 
L 800 3500 
L 1894 763 
L 2988 3500 
L 3597 3500 
L 2059 -325 
z
" transform="scale(0.015625)"/>
      </defs>
      <use xlink:href="#DejaVuSans-49"/>
      <use xlink:href="#DejaVuSans-6e" x="29.492188"/>
      <use xlink:href="#DejaVuSans-74" x="92.871094"/>
      <use xlink:href="#DejaVuSans-65" x="132.080078"/>
      <use xlink:href="#DejaVuSans-6e" x="193.603516"/>
      <use xlink:href="#DejaVuSans-73" x="256.982422"/>
      <use xlink:href="#DejaVuSans-69" x="309.082031"/>
      <use xlink:href="#DejaVuSans-74" x="336.865234"/>
      <use xlink:href="#DejaVuSans-79" x="376.074219"/>
     </g>
    </g>
   </g>
   <g id="line2d_5">
    <path d="M 19.785518 280.454748 
L 20.878125 280.20103 
L 21.970732 279.735879 
L 23.063339 279.947311 
L 24.155946 280.285602 
L 25.248554 280.07417 
L 26.341161 279.989598 
L 27.433768 281.046758 
L 28.526375 279.778166 
L 29.618982 280.835326 
L 30.711589 280.877612 
L 31.804196 281.173617 
L 32.896804 280.919898 
L 33.989411 280.835326 
L 35.082018 280.20103 
L 36.174625 280.327889 
L 37.267232 281.25819 
L 38.359839 280.497034 
L 39.452446 280.623894 
L 40.545054 281.215903 
L 42.730268 280.708466 
L 43.822875 281.131331 
L 46.008089 280.793039 
L 47.100696 279.905025 
L 48.193304 281.72334 
L 49.285911 279.693593 
L 50.378518 281.596481 
L 52.563732 280.835326 
L 53.656339 281.004471 
L 54.748946 280.750753 
L 55.841554 280.285602 
L 56.934161 280.708466 
L 58.026768 281.342763 
L 59.119375 279.228442 
L 60.211982 280.370175 
L 61.304589 279.693593 
L 62.397196 277.917564 
L 63.489804 279.059297 
L 64.582411 278.721005 
L 66.767625 276.90269 
L 67.860232 276.775831 
L 68.952839 275.168947 
L 70.045446 272.462618 
L 71.138054 273.984928 
L 72.230661 274.280933 
L 73.323268 276.775831 
L 74.415875 275.972389 
L 75.508482 276.733544 
L 76.601089 279.355302 
L 77.693696 280.835326 
L 78.786304 281.638767 
L 79.878911 281.385049 
L 80.971518 280.623894 
L 83.156732 282.103918 
L 84.249339 282.103918 
L 85.341946 281.892486 
L 86.434554 282.103918 
L 87.527161 281.892486 
L 88.619768 281.300476 
L 89.712375 281.554195 
L 90.804982 282.991932 
L 91.897589 282.695927 
L 92.990196 281.72334 
L 94.082804 282.103918 
L 95.175411 282.019345 
L 96.268018 282.695927 
L 97.360625 281.765627 
L 98.453232 281.638767 
L 99.545839 282.442209 
L 100.638446 282.061631 
L 101.731054 281.807913 
L 102.823661 281.807913 
L 103.916268 282.019345 
L 106.101482 281.596481 
L 107.194089 283.076505 
L 108.286696 281.850199 
L 109.379304 281.977059 
L 110.471911 281.596481 
L 111.564518 282.484495 
L 112.657125 281.427335 
L 114.842339 282.399923 
L 115.934946 282.103918 
L 117.027554 282.230777 
L 118.120161 282.695927 
L 120.305375 281.25819 
L 121.397982 281.765627 
L 122.490589 282.653641 
L 123.583196 282.526782 
L 124.675804 282.273063 
L 125.768411 282.90736 
L 127.953625 281.554195 
L 129.046232 282.357636 
L 131.231446 282.569068 
L 132.324054 281.892486 
L 133.416661 282.7805 
L 134.509268 281.977059 
L 136.694482 280.877612 
L 137.787089 281.934772 
L 138.879696 281.554195 
L 139.972304 280.750753 
L 141.064911 280.581607 
L 142.157518 278.298141 
L 143.250125 278.128996 
L 145.435339 274.999802 
L 146.527946 273.815782 
L 147.620554 271.447744 
L 148.713161 271.955181 
L 150.898375 275.803244 
L 154.176196 279.989598 
L 155.268804 277.917564 
L 156.361411 278.847865 
L 157.454018 278.086709 
L 158.546625 277.071836 
L 159.639232 276.268394 
L 160.731839 278.044423 
L 161.824446 280.327889 
L 162.917054 279.651306 
L 164.009661 280.539321 
L 165.102268 280.877612 
L 166.194875 282.273063 
L 167.287482 281.850199 
L 168.380089 282.061631 
L 169.472696 280.793039 
L 170.565304 279.947311 
L 171.657911 280.285602 
L 172.750518 279.524447 
L 173.843125 278.213569 
L 176.028339 272.800909 
L 177.120946 269.333424 
L 178.213554 266.796239 
L 179.306161 262.567599 
L 180.398768 254.32175 
L 181.491375 247.344493 
L 182.583982 237.787766 
L 183.676589 230.979654 
L 184.769196 217.152 
L 185.861804 219.393179 
L 186.954411 229.626489 
L 188.047018 250.093109 
L 189.139625 262.694458 
L 190.232232 273.012341 
L 191.324839 277.029549 
L 192.417446 278.932437 
L 193.510054 279.862738 
L 194.602661 280.962185 
L 195.695268 280.793039 
L 196.787875 281.089044 
L 197.880482 281.25819 
L 198.973089 281.807913 
L 200.065696 282.230777 
L 201.158304 282.188491 
L 202.250911 282.822787 
L 203.343518 282.484495 
L 204.436125 282.357636 
L 205.528732 282.653641 
L 206.621339 281.977059 
L 207.713946 282.357636 
L 208.806554 282.399923 
L 209.899161 283.034219 
L 210.991768 283.118792 
L 212.084375 283.034219 
L 213.176982 282.484495 
L 213.176982 282.484495 
" clip-path="url(#p827c7659a8)" style="fill: none; stroke: #1f77b4; stroke-width: 1.5; stroke-linecap: square"/>
   </g>
   <g id="line2d_6">
    <path d="M 20.331821 209.88455 
L 20.878125 209.668072 
L 21.424429 210.41028 
L 21.970732 210.070102 
L 22.517036 209.358819 
L 23.063339 210.379355 
L 23.609643 209.9464 
L 24.155946 210.255654 
L 25.794857 209.204193 
L 27.433768 210.379355 
L 27.980071 210.255654 
L 28.526375 210.966936 
L 29.618982 210.688608 
L 30.165286 210.255654 
L 30.711589 210.441205 
L 31.257893 209.88455 
L 31.804196 210.533981 
L 32.3505 210.719533 
L 32.896804 210.131952 
L 33.443107 210.966936 
L 33.989411 209.9464 
L 34.535714 210.657683 
L 35.082018 210.533981 
L 35.628321 210.255654 
L 36.174625 210.657683 
L 36.720929 210.533981 
L 37.267232 210.781384 
L 38.359839 210.688608 
L 38.906143 211.028787 
L 39.99875 209.822699 
L 40.545054 210.070102 
L 41.091357 210.070102 
L 41.637661 211.121563 
L 42.183964 210.41028 
L 43.276571 210.812309 
L 43.822875 210.719533 
L 44.369179 210.070102 
L 44.915482 210.564907 
L 45.461786 210.41028 
L 46.554393 211.090637 
L 47.100696 210.008251 
L 47.647 210.286579 
L 48.193304 210.843235 
L 48.739607 210.87416 
L 49.285911 210.379355 
L 49.832214 210.936011 
L 50.378518 210.224728 
L 50.924821 210.781384 
L 51.471125 210.533981 
L 52.017429 210.533981 
L 53.110036 210.843235 
L 53.656339 211.307114 
L 54.202643 210.101027 
L 54.748946 210.008251 
L 55.841554 211.585442 
L 56.387857 210.87416 
L 56.934161 210.41028 
L 57.480464 210.131952 
L 58.026768 210.379355 
L 58.573071 209.915475 
L 59.119375 210.193803 
L 59.665679 210.997861 
L 60.211982 210.626757 
L 60.758286 209.915475 
L 61.304589 209.637147 
L 62.397196 209.853624 
L 62.9435 209.668072 
L 63.489804 209.606222 
L 64.036107 210.008251 
L 64.582411 208.369209 
L 65.128714 208.987715 
L 66.221321 208.059956 
L 66.767625 208.369209 
L 67.313929 207.688852 
L 67.860232 207.194047 
L 68.406536 207.03942 
L 68.952839 206.235362 
L 69.499143 206.204437 
L 70.045446 205.647781 
L 70.59175 204.781872 
L 71.138054 204.720021 
L 71.684357 205.864258 
L 72.230661 206.730167 
L 72.776964 206.04981 
L 73.323268 206.853868 
L 73.869571 206.946644 
L 74.415875 207.5033 
L 74.962179 207.03942 
L 76.054786 208.802163 
L 76.601089 208.709388 
L 77.147393 210.441205 
L 77.693696 210.966936 
L 78.24 210.472131 
L 78.786304 210.503056 
L 79.332607 211.368965 
L 79.878911 210.564907 
L 80.425214 211.307114 
L 80.971518 212.513202 
L 81.517821 210.750459 
L 82.064125 212.420426 
L 82.610429 211.86377 
L 83.156732 211.121563 
L 83.703036 211.183413 
L 84.249339 211.709144 
L 84.795643 211.987471 
L 85.341946 211.39989 
L 85.88825 211.492666 
L 86.434554 212.544127 
L 86.980857 211.709144 
L 87.527161 212.420426 
L 88.073464 212.018397 
L 88.619768 211.245264 
L 89.712375 211.770994 
L 90.258679 211.183413 
L 90.804982 211.523592 
L 91.897589 211.86377 
L 92.443893 211.430816 
L 92.990196 211.430816 
L 93.5365 211.894696 
L 94.082804 211.33804 
L 94.629107 211.616368 
L 95.175411 211.214338 
L 95.721714 211.987471 
L 96.268018 211.616368 
L 96.814321 212.358575 
L 97.360625 211.956546 
L 97.906929 212.544127 
L 98.453232 212.420426 
L 98.999536 211.616368 
L 99.545839 212.482277 
L 100.092143 212.049322 
L 100.638446 212.482277 
L 101.18475 212.203949 
L 101.731054 212.32765 
L 102.277357 211.925621 
L 102.823661 211.987471 
L 103.369964 212.296725 
L 103.916268 212.389501 
L 104.462571 212.111173 
L 105.008875 211.461741 
L 105.555179 212.575053 
L 106.101482 211.956546 
L 106.647786 212.080247 
L 107.194089 212.049322 
L 107.740393 211.276189 
L 108.286696 210.997861 
L 108.833 212.389501 
L 109.379304 212.173023 
L 109.925607 212.234874 
L 110.471911 211.770994 
L 111.018214 212.822455 
L 111.564518 211.028787 
L 112.110821 211.832845 
L 112.657125 211.80192 
L 113.203429 212.234874 
L 113.749732 212.111173 
L 114.296036 211.832845 
L 114.842339 211.39989 
L 115.934946 212.265799 
L 116.48125 211.554517 
L 117.027554 211.245264 
L 117.573857 211.832845 
L 118.120161 212.203949 
L 118.666464 212.080247 
L 119.212768 212.451351 
L 119.759071 212.080247 
L 120.305375 212.420426 
L 120.851679 211.430816 
L 121.944286 213.008007 
L 122.490589 212.32765 
L 123.036893 212.513202 
L 123.583196 212.234874 
L 124.1295 212.420426 
L 124.675804 212.358575 
L 125.222107 211.894696 
L 125.768411 212.296725 
L 126.314714 211.492666 
L 126.861018 212.389501 
L 127.407321 211.709144 
L 127.953625 211.987471 
L 128.499929 212.729679 
L 129.046232 211.832845 
L 129.592536 212.173023 
L 130.138839 212.265799 
L 130.685143 212.822455 
L 131.231446 212.234874 
L 131.77775 212.389501 
L 132.324054 211.028787 
L 132.870357 211.678218 
L 133.416661 211.523592 
L 133.962964 211.554517 
L 134.509268 211.183413 
L 135.055571 211.028787 
L 135.601875 211.585442 
L 136.148179 210.657683 
L 136.694482 210.781384 
L 137.240786 210.595832 
L 137.787089 210.008251 
L 138.333393 208.925865 
L 138.879696 209.575297 
L 139.426 208.152732 
L 139.972304 208.802163 
L 140.518607 206.51369 
L 141.064911 207.719777 
L 141.611214 206.359063 
L 142.157518 205.647781 
L 142.703821 205.895183 
L 143.250125 203.173755 
L 143.796429 204.008739 
L 144.342732 201.998593 
L 144.889036 201.039908 
L 145.435339 198.102003 
L 145.981643 197.607198 
L 147.07425 193.865234 
L 147.620554 193.710607 
L 148.166857 194.885769 
L 148.713161 193.834308 
L 149.259464 197.761824 
L 149.805768 197.699973 
L 150.352071 199.988447 
L 150.898375 202.833577 
L 151.444679 204.565395 
L 151.990982 204.781872 
L 152.537286 206.080735 
L 153.083589 208.121806 
L 153.629893 208.49291 
L 154.176196 209.698998 
L 154.7225 209.822699 
L 155.268804 208.678462 
L 155.815107 209.9464 
L 156.361411 208.95679 
L 156.907714 208.647537 
L 157.454018 209.513446 
L 158.000321 208.43106 
L 158.546625 208.554761 
L 159.092929 209.049566 
L 159.639232 208.245508 
L 160.185536 208.864014 
L 160.731839 207.657927 
L 161.278143 209.235118 
L 161.824446 210.472131 
L 162.37075 210.317504 
L 162.917054 210.472131 
L 163.463357 211.368965 
L 164.009661 211.554517 
L 164.555964 210.781384 
L 167.287482 211.245264 
L 167.833786 209.915475 
L 168.380089 210.41028 
L 168.926393 209.42067 
L 169.472696 208.925865 
L 170.019 210.255654 
L 170.565304 208.369209 
L 171.111607 208.307358 
L 171.657911 208.02903 
L 172.204214 206.761092 
L 172.750518 204.998349 
L 173.296821 205.0602 
L 173.843125 203.823187 
L 174.389429 202.895427 
L 174.935732 202.771726 
L 175.482036 200.854356 
L 176.028339 198.380331 
L 177.120946 195.658902 
L 179.306161 180.845674 
L 179.852464 177.072785 
L 180.398768 174.475058 
L 180.945071 168.9085 
L 182.037679 151.744947 
L 182.583982 148.09576 
L 183.130286 148.374087 
L 183.676589 147.168 
L 184.222893 150.909964 
L 186.408107 188.267751 
L 186.954411 195.535201 
L 187.500714 200.514178 
L 188.047018 204.410768 
L 188.593321 205.12205 
L 189.139625 207.905329 
L 190.232232 210.719533 
L 190.778536 210.162878 
L 191.324839 210.41028 
L 191.871143 211.554517 
L 192.417446 211.987471 
L 192.96375 211.430816 
L 193.510054 211.925621 
L 194.602661 213.100783 
L 195.148964 212.296725 
L 195.695268 212.915231 
L 196.241571 212.265799 
L 196.787875 213.595588 
L 197.880482 213.379111 
L 198.426786 212.32765 
L 198.973089 213.038932 
L 199.519393 212.667829 
L 200.065696 212.667829 
L 200.612 213.286335 
L 201.158304 212.667829 
L 201.704607 212.667829 
L 202.250911 213.348186 
L 202.797214 212.760605 
L 203.343518 212.915231 
L 203.889821 213.193559 
L 204.436125 212.946156 
L 204.982429 213.750215 
L 206.075036 212.884306 
L 206.621339 213.78114 
L 207.167643 213.688364 
L 207.713946 213.038932 
L 208.26025 212.822455 
L 208.806554 214.275945 
L 209.352857 213.440962 
L 209.899161 213.750215 
L 210.991768 213.595588 
L 211.538071 213.31726 
L 212.084375 213.410036 
L 212.630679 212.698754 
L 212.630679 212.698754 
" clip-path="url(#p827c7659a8)" style="fill: none; stroke: #ff7f0e; stroke-width: 1.5; stroke-linecap: square"/>
   </g>
   <g id="line2d_7">
    <path d="M 19.785518 128.610839 
L 20.878125 127.31289 
L 21.970732 128.260042 
L 23.063339 129.487832 
L 24.155946 128.330202 
L 25.248554 130.189426 
L 26.341161 129.312433 
L 27.433768 129.172114 
L 28.526375 130.996259 
L 29.618982 129.137035 
L 30.711589 131.452295 
L 31.804196 130.996259 
L 32.896804 129.62815 
L 33.989411 130.189426 
L 35.082018 130.540223 
L 36.174625 129.838629 
L 37.267232 130.014027 
L 38.359839 130.014027 
L 39.452446 131.873251 
L 40.545054 130.715621 
L 41.637661 131.031338 
L 42.730268 130.364824 
L 43.822875 130.610382 
L 44.915482 128.996716 
L 46.008089 129.873708 
L 47.100696 129.908788 
L 48.193304 130.434983 
L 50.378518 128.821317 
L 51.471125 128.961636 
L 52.563732 130.154346 
L 53.656339 128.365281 
L 54.748946 127.032253 
L 55.841554 127.804006 
L 56.934161 126.962093 
L 58.026768 124.120638 
L 59.119375 122.436812 
L 60.211982 122.261414 
L 61.304589 121.770298 
L 64.582411 110.614953 
L 65.675018 105.773955 
L 66.767625 99.459609 
L 67.860232 86.374881 
L 68.952839 81.428644 
L 70.045446 77.184 
L 71.138054 82.97215 
L 72.230661 91.636836 
L 74.415875 106.580788 
L 75.508482 116.332944 
L 76.601089 120.121552 
L 77.693696 126.611296 
L 78.786304 129.62815 
L 79.878911 131.241817 
L 80.971518 132.04865 
L 82.064125 132.715164 
L 83.156732 132.645005 
L 84.249339 132.329287 
L 85.341946 133.416758 
L 86.434554 133.767555 
L 87.527161 133.662316 
L 88.619768 131.803092 
L 89.712375 133.1712 
L 90.804982 133.627236 
L 92.990196 133.592156 
L 94.082804 135.275982 
L 95.175411 134.118352 
L 96.268018 135.205823 
L 97.360625 132.153889 
L 98.453232 135.416301 
L 99.545839 134.574388 
L 100.638446 134.749786 
L 101.731054 133.907874 
L 102.823661 134.398989 
L 103.916268 135.030424 
L 105.008875 135.135663 
L 106.101482 135.591699 
L 107.194089 133.346598 
L 108.286696 135.907417 
L 109.379304 135.52154 
L 110.471911 134.714707 
L 111.564518 134.29375 
L 112.657125 135.626779 
L 113.749732 134.609468 
L 114.842339 133.942953 
L 115.934946 134.504229 
L 117.027554 136.749329 
L 118.120161 134.539308 
L 119.212768 134.960265 
L 120.305375 136.293293 
L 121.397982 135.135663 
L 122.490589 135.732018 
L 123.583196 135.311062 
L 124.675804 135.626779 
L 125.768411 136.258214 
L 126.861018 134.749786 
L 127.953625 135.907417 
L 129.046232 134.083272 
L 130.138839 134.434069 
L 131.231446 135.346141 
L 132.324054 134.29375 
L 133.416661 133.627236 
L 134.509268 134.539308 
L 135.601875 134.048192 
L 136.694482 134.749786 
L 137.787089 132.609925 
L 138.879696 131.241817 
L 139.972304 131.697853 
L 142.157518 128.189883 
L 143.250125 127.34797 
L 144.342732 125.488746 
L 145.435339 124.716992 
L 146.527946 119.314719 
L 147.620554 117.315176 
L 148.713161 114.578959 
L 149.805768 116.017227 
L 151.990982 121.033624 
L 153.083589 121.910617 
L 154.176196 118.332487 
L 155.268804 118.227248 
L 156.361411 112.824974 
L 157.454018 106.475549 
L 158.546625 106.159832 
L 159.639232 111.386707 
L 160.731839 119.034081 
L 162.917054 131.241817 
L 164.009661 131.697853 
L 165.102268 133.697395 
L 166.194875 134.890105 
L 167.287482 134.574388 
L 168.380089 135.942496 
L 169.472696 135.907417 
L 170.565304 134.083272 
L 171.657911 135.065504 
L 172.750518 134.574388 
L 173.843125 133.416758 
L 174.935732 133.592156 
L 176.028339 132.118809 
L 177.120946 130.084186 
L 178.213554 129.733389 
L 180.398768 125.208108 
L 181.491375 120.33203 
L 182.583982 118.086929 
L 185.861804 97.144349 
L 188.047018 81.709281 
L 189.139625 85.708367 
L 191.324839 112.860054 
L 192.417446 125.699224 
L 193.510054 130.575302 
L 194.602661 134.153432 
L 195.695268 135.55662 
L 196.787875 135.52154 
L 197.880482 136.609011 
L 198.973089 136.503771 
L 200.065696 137.942039 
L 201.158304 137.87188 
L 202.250911 137.205365 
L 203.343518 137.977119 
L 204.436125 137.731561 
L 205.528732 138.854111 
L 206.621339 138.468235 
L 207.713946 137.556162 
L 208.806554 137.766641 
L 209.899161 138.748872 
L 210.991768 138.433155 
L 212.084375 137.135206 
L 213.176982 138.99443 
L 213.176982 138.99443 
" clip-path="url(#p827c7659a8)" style="fill: none; stroke: #2ca02c; stroke-width: 1.5; stroke-linecap: square"/>
   </g>
   <g id="line2d_8">
    <path d="M 187.500714 287.136 
L 187.500714 7.2 
" clip-path="url(#p827c7659a8)" style="fill: none; stroke-dasharray: 2.96,1.28; stroke-dashoffset: 0; stroke: #000000; stroke-width: 0.8"/>
   </g>
   <g id="patch_3">
    <path d="M 20.878125 287.136 
L 20.878125 7.2 
" style="fill: none; stroke: #000000; stroke-width: 0.8; stroke-linejoin: miter; stroke-linecap: square"/>
   </g>
   <g id="patch_4">
    <path d="M 212.084375 287.136 
L 212.084375 7.2 
" style="fill: none; stroke: #000000; stroke-width: 0.8; stroke-linejoin: miter; stroke-linecap: square"/>
   </g>
   <g id="patch_5">
    <path d="M 20.878125 287.136 
L 212.084375 287.136 
" style="fill: none; stroke: #000000; stroke-width: 0.8; stroke-linejoin: miter; stroke-linecap: square"/>
   </g>
   <g id="patch_6">
    <path d="M 20.878125 7.2 
L 212.084375 7.2 
" style="fill: none; stroke: #000000; stroke-width: 0.8; stroke-linejoin: miter; stroke-linecap: square"/>
   </g>
   <g id="text_7">
    <!--  $ {\rm \delta}$-Cs (002) -->
    <g style="fill: #0000ff" transform="translate(72.776964 42.192)scale(0.0833 -0.0833)">
     <defs>
      <path id="DejaVuSans-20" transform="scale(0.015625)"/>
      <path id="DejaVuSans-3b4" d="M 3138 4053 
Q 2819 4272 2072 4272 
Q 1281 4272 1281 3906 
Q 1281 3619 2106 3469 
Q 2756 3353 3122 3003 
Q 3566 2581 3566 1716 
Q 3566 888 3138 400 
Q 2709 -91 1959 -91 
Q 1213 -91 781 400 
Q 353 888 353 1747 
Q 353 2384 781 2900 
Q 947 3100 1181 3213 
Q 694 3459 694 3900 
Q 694 4750 2072 4750 
Q 2763 4750 3138 4531 
L 3138 4053 
z
M 1613 3056 
Q 1400 2966 1228 2738 
Q 959 2384 959 1747 
Q 959 1113 1225 756 
Q 1494 397 1959 397 
Q 2419 397 2687 759 
Q 2956 1122 2956 1716 
Q 2956 2338 2672 2638 
Q 2369 2959 1975 2994 
Q 1775 3013 1613 3056 
z
" transform="scale(0.015625)"/>
      <path id="DejaVuSans-2d" d="M 313 2009 
L 1997 2009 
L 1997 1497 
L 313 1497 
L 313 2009 
z
" transform="scale(0.015625)"/>
      <path id="DejaVuSans-43" d="M 4122 4306 
L 4122 3641 
Q 3803 3938 3442 4084 
Q 3081 4231 2675 4231 
Q 1875 4231 1450 3742 
Q 1025 3253 1025 2328 
Q 1025 1406 1450 917 
Q 1875 428 2675 428 
Q 3081 428 3442 575 
Q 3803 722 4122 1019 
L 4122 359 
Q 3791 134 3420 21 
Q 3050 -91 2638 -91 
Q 1578 -91 968 557 
Q 359 1206 359 2328 
Q 359 3453 968 4101 
Q 1578 4750 2638 4750 
Q 3056 4750 3426 4639 
Q 3797 4528 4122 4306 
z
" transform="scale(0.015625)"/>
      <path id="DejaVuSans-28" d="M 1984 4856 
Q 1566 4138 1362 3434 
Q 1159 2731 1159 2009 
Q 1159 1288 1364 580 
Q 1569 -128 1984 -844 
L 1484 -844 
Q 1016 -109 783 600 
Q 550 1309 550 2009 
Q 550 2706 781 3412 
Q 1013 4119 1484 4856 
L 1984 4856 
z
" transform="scale(0.015625)"/>
      <path id="DejaVuSans-29" d="M 513 4856 
L 1013 4856 
Q 1481 4119 1714 3412 
Q 1947 2706 1947 2009 
Q 1947 1309 1714 600 
Q 1481 -109 1013 -844 
L 513 -844 
Q 928 -128 1133 580 
Q 1338 1288 1338 2009 
Q 1338 2731 1133 3434 
Q 928 4138 513 4856 
z
" transform="scale(0.015625)"/>
     </defs>
     <use xlink:href="#DejaVuSans-20" transform="translate(0 0.125)"/>
     <use xlink:href="#DejaVuSans-3b4" transform="translate(31.787109 0.125)"/>
     <use xlink:href="#DejaVuSans-2d" transform="translate(92.96875 0.125)"/>
     <use xlink:href="#DejaVuSans-43" transform="translate(129.052734 0.125)"/>
     <use xlink:href="#DejaVuSans-73" transform="translate(198.876953 0.125)"/>
     <use xlink:href="#DejaVuSans-20" transform="translate(250.976562 0.125)"/>
     <use xlink:href="#DejaVuSans-28" transform="translate(282.763672 0.125)"/>
     <use xlink:href="#DejaVuSans-30" transform="translate(321.777344 0.125)"/>
     <use xlink:href="#DejaVuSans-30" transform="translate(385.400391 0.125)"/>
     <use xlink:href="#DejaVuSans-32" transform="translate(449.023438 0.125)"/>
     <use xlink:href="#DejaVuSans-29" transform="translate(512.646484 0.125)"/>
    </g>
   </g>
   <g id="text_8">
    <!--  ${\rm \delta}$-Cs (102) -->
    <g style="fill: #0000ff" transform="translate(130.138839 84.1824)scale(0.0833 -0.0833)">
     <use xlink:href="#DejaVuSans-20" transform="translate(0 0.125)"/>
     <use xlink:href="#DejaVuSans-3b4" transform="translate(31.787109 0.125)"/>
     <use xlink:href="#DejaVuSans-2d" transform="translate(92.96875 0.125)"/>
     <use xlink:href="#DejaVuSans-43" transform="translate(129.052734 0.125)"/>
     <use xlink:href="#DejaVuSans-73" transform="translate(198.876953 0.125)"/>
     <use xlink:href="#DejaVuSans-20" transform="translate(250.976562 0.125)"/>
     <use xlink:href="#DejaVuSans-28" transform="translate(282.763672 0.125)"/>
     <use xlink:href="#DejaVuSans-31" transform="translate(321.777344 0.125)"/>
     <use xlink:href="#DejaVuSans-30" transform="translate(385.400391 0.125)"/>
     <use xlink:href="#DejaVuSans-32" transform="translate(449.023438 0.125)"/>
     <use xlink:href="#DejaVuSans-29" transform="translate(512.646484 0.125)"/>
    </g>
   </g>
   <g id="text_9">
    <!-- perovskite -->
    <g transform="translate(138.333393 63.1872)scale(0.0833 -0.0833)">
     <defs>
      <path id="DejaVuSans-70" d="M 1159 525 
L 1159 -1331 
L 581 -1331 
L 581 3500 
L 1159 3500 
L 1159 2969 
Q 1341 3281 1617 3432 
Q 1894 3584 2278 3584 
Q 2916 3584 3314 3078 
Q 3713 2572 3713 1747 
Q 3713 922 3314 415 
Q 2916 -91 2278 -91 
Q 1894 -91 1617 61 
Q 1341 213 1159 525 
z
M 3116 1747 
Q 3116 2381 2855 2742 
Q 2594 3103 2138 3103 
Q 1681 3103 1420 2742 
Q 1159 2381 1159 1747 
Q 1159 1113 1420 752 
Q 1681 391 2138 391 
Q 2594 391 2855 752 
Q 3116 1113 3116 1747 
z
" transform="scale(0.015625)"/>
      <path id="DejaVuSans-72" d="M 2631 2963 
Q 2534 3019 2420 3045 
Q 2306 3072 2169 3072 
Q 1681 3072 1420 2755 
Q 1159 2438 1159 1844 
L 1159 0 
L 581 0 
L 581 3500 
L 1159 3500 
L 1159 2956 
Q 1341 3275 1631 3429 
Q 1922 3584 2338 3584 
Q 2397 3584 2469 3576 
Q 2541 3569 2628 3553 
L 2631 2963 
z
" transform="scale(0.015625)"/>
      <path id="DejaVuSans-6f" d="M 1959 3097 
Q 1497 3097 1228 2736 
Q 959 2375 959 1747 
Q 959 1119 1226 758 
Q 1494 397 1959 397 
Q 2419 397 2687 759 
Q 2956 1122 2956 1747 
Q 2956 2369 2687 2733 
Q 2419 3097 1959 3097 
z
M 1959 3584 
Q 2709 3584 3137 3096 
Q 3566 2609 3566 1747 
Q 3566 888 3137 398 
Q 2709 -91 1959 -91 
Q 1206 -91 779 398 
Q 353 888 353 1747 
Q 353 2609 779 3096 
Q 1206 3584 1959 3584 
z
" transform="scale(0.015625)"/>
      <path id="DejaVuSans-76" d="M 191 3500 
L 800 3500 
L 1894 563 
L 2988 3500 
L 3597 3500 
L 2284 0 
L 1503 0 
L 191 3500 
z
" transform="scale(0.015625)"/>
      <path id="DejaVuSans-6b" d="M 581 4863 
L 1159 4863 
L 1159 1991 
L 2875 3500 
L 3609 3500 
L 1753 1863 
L 3688 0 
L 2938 0 
L 1159 1709 
L 1159 0 
L 581 0 
L 581 4863 
z
" transform="scale(0.015625)"/>
     </defs>
     <use xlink:href="#DejaVuSans-70"/>
     <use xlink:href="#DejaVuSans-65" x="63.476562"/>
     <use xlink:href="#DejaVuSans-72" x="125"/>
     <use xlink:href="#DejaVuSans-6f" x="163.863281"/>
     <use xlink:href="#DejaVuSans-76" x="225.044922"/>
     <use xlink:href="#DejaVuSans-73" x="284.224609"/>
     <use xlink:href="#DejaVuSans-6b" x="336.324219"/>
     <use xlink:href="#DejaVuSans-69" x="394.234375"/>
     <use xlink:href="#DejaVuSans-74" x="422.017578"/>
     <use xlink:href="#DejaVuSans-65" x="461.226562"/>
    </g>
   </g>
   <g id="text_10">
    <!--  PbI$_2$ -->
    <g style="fill: #b8860b" transform="translate(146.527946 182.16)scale(0.0833 -0.0833)">
     <defs>
      <path id="DejaVuSans-50" d="M 1259 4147 
L 1259 2394 
L 2053 2394 
Q 2494 2394 2734 2622 
Q 2975 2850 2975 3272 
Q 2975 3691 2734 3919 
Q 2494 4147 2053 4147 
L 1259 4147 
z
M 628 4666 
L 2053 4666 
Q 2838 4666 3239 4311 
Q 3641 3956 3641 3272 
Q 3641 2581 3239 2228 
Q 2838 1875 2053 1875 
L 1259 1875 
L 1259 0 
L 628 0 
L 628 4666 
z
" transform="scale(0.015625)"/>
      <path id="DejaVuSans-62" d="M 3116 1747 
Q 3116 2381 2855 2742 
Q 2594 3103 2138 3103 
Q 1681 3103 1420 2742 
Q 1159 2381 1159 1747 
Q 1159 1113 1420 752 
Q 1681 391 2138 391 
Q 2594 391 2855 752 
Q 3116 1113 3116 1747 
z
M 1159 2969 
Q 1341 3281 1617 3432 
Q 1894 3584 2278 3584 
Q 2916 3584 3314 3078 
Q 3713 2572 3713 1747 
Q 3713 922 3314 415 
Q 2916 -91 2278 -91 
Q 1894 -91 1617 61 
Q 1341 213 1159 525 
L 1159 0 
L 581 0 
L 581 4863 
L 1159 4863 
L 1159 2969 
z
" transform="scale(0.015625)"/>
     </defs>
     <use xlink:href="#DejaVuSans-20" transform="translate(0 0.015625)"/>
     <use xlink:href="#DejaVuSans-50" transform="translate(31.787109 0.015625)"/>
     <use xlink:href="#DejaVuSans-62" transform="translate(92.089844 0.015625)"/>
     <use xlink:href="#DejaVuSans-49" transform="translate(155.566406 0.015625)"/>
     <use xlink:href="#DejaVuSans-32" transform="translate(186.015625 -16.390625)scale(0.7)"/>
    </g>
   </g>
   <g id="legend_1">
    <g id="line2d_9">
     <path d="M 24.878125 359.340087 
L 34.878125 359.340087 
L 44.878125 359.340087 
" style="fill: none; stroke: #1f77b4; stroke-width: 1.5; stroke-linecap: square"/>
    </g>
    <g id="text_11">
     <!-- c1_Cs25FA50MA25 -->
     <g transform="translate(52.878125 362.840087)scale(0.1 -0.1)">
      <defs>
       <path id="DejaVuSans-63" d="M 3122 3366 
L 3122 2828 
Q 2878 2963 2633 3030 
Q 2388 3097 2138 3097 
Q 1578 3097 1268 2742 
Q 959 2388 959 1747 
Q 959 1106 1268 751 
Q 1578 397 2138 397 
Q 2388 397 2633 464 
Q 2878 531 3122 666 
L 3122 134 
Q 2881 22 2623 -34 
Q 2366 -91 2075 -91 
Q 1284 -91 818 406 
Q 353 903 353 1747 
Q 353 2603 823 3093 
Q 1294 3584 2113 3584 
Q 2378 3584 2631 3529 
Q 2884 3475 3122 3366 
z
" transform="scale(0.015625)"/>
       <path id="DejaVuSans-5f" d="M 3263 -1063 
L 3263 -1509 
L -63 -1509 
L -63 -1063 
L 3263 -1063 
z
" transform="scale(0.015625)"/>
       <path id="DejaVuSans-35" d="M 691 4666 
L 3169 4666 
L 3169 4134 
L 1269 4134 
L 1269 2991 
Q 1406 3038 1543 3061 
Q 1681 3084 1819 3084 
Q 2600 3084 3056 2656 
Q 3513 2228 3513 1497 
Q 3513 744 3044 326 
Q 2575 -91 1722 -91 
Q 1428 -91 1123 -41 
Q 819 9 494 109 
L 494 744 
Q 775 591 1075 516 
Q 1375 441 1709 441 
Q 2250 441 2565 725 
Q 2881 1009 2881 1497 
Q 2881 1984 2565 2268 
Q 2250 2553 1709 2553 
Q 1456 2553 1204 2497 
Q 953 2441 691 2322 
L 691 4666 
z
" transform="scale(0.015625)"/>
       <path id="DejaVuSans-46" d="M 628 4666 
L 3309 4666 
L 3309 4134 
L 1259 4134 
L 1259 2759 
L 3109 2759 
L 3109 2228 
L 1259 2228 
L 1259 0 
L 628 0 
L 628 4666 
z
" transform="scale(0.015625)"/>
       <path id="DejaVuSans-41" d="M 2188 4044 
L 1331 1722 
L 3047 1722 
L 2188 4044 
z
M 1831 4666 
L 2547 4666 
L 4325 0 
L 3669 0 
L 3244 1197 
L 1141 1197 
L 716 0 
L 50 0 
L 1831 4666 
z
" transform="scale(0.015625)"/>
       <path id="DejaVuSans-4d" d="M 628 4666 
L 1569 4666 
L 2759 1491 
L 3956 4666 
L 4897 4666 
L 4897 0 
L 4281 0 
L 4281 4097 
L 3078 897 
L 2444 897 
L 1241 4097 
L 1241 0 
L 628 0 
L 628 4666 
z
" transform="scale(0.015625)"/>
      </defs>
      <use xlink:href="#DejaVuSans-63"/>
      <use xlink:href="#DejaVuSans-31" x="54.980469"/>
      <use xlink:href="#DejaVuSans-5f" x="118.603516"/>
      <use xlink:href="#DejaVuSans-43" x="168.603516"/>
      <use xlink:href="#DejaVuSans-73" x="238.427734"/>
      <use xlink:href="#DejaVuSans-32" x="290.527344"/>
      <use xlink:href="#DejaVuSans-35" x="354.150391"/>
      <use xlink:href="#DejaVuSans-46" x="417.773438"/>
      <use xlink:href="#DejaVuSans-41" x="466.167969"/>
      <use xlink:href="#DejaVuSans-35" x="534.576172"/>
      <use xlink:href="#DejaVuSans-30" x="598.199219"/>
      <use xlink:href="#DejaVuSans-4d" x="661.822266"/>
      <use xlink:href="#DejaVuSans-41" x="748.101562"/>
      <use xlink:href="#DejaVuSans-32" x="816.509766"/>
      <use xlink:href="#DejaVuSans-35" x="880.132812"/>
     </g>
    </g>
    <g id="line2d_10">
     <path d="M 24.878125 374.296337 
L 34.878125 374.296337 
L 44.878125 374.296337 
" style="fill: none; stroke: #ff7f0e; stroke-width: 1.5; stroke-linecap: square"/>
    </g>
    <g id="text_12">
     <!-- c2_Cs25FA71MA04 -->
     <g transform="translate(52.878125 377.796337)scale(0.1 -0.1)">
      <defs>
       <path id="DejaVuSans-37" d="M 525 4666 
L 3525 4666 
L 3525 4397 
L 1831 0 
L 1172 0 
L 2766 4134 
L 525 4134 
L 525 4666 
z
" transform="scale(0.015625)"/>
      </defs>
      <use xlink:href="#DejaVuSans-63"/>
      <use xlink:href="#DejaVuSans-32" x="54.980469"/>
      <use xlink:href="#DejaVuSans-5f" x="118.603516"/>
      <use xlink:href="#DejaVuSans-43" x="168.603516"/>
      <use xlink:href="#DejaVuSans-73" x="238.427734"/>
      <use xlink:href="#DejaVuSans-32" x="290.527344"/>
      <use xlink:href="#DejaVuSans-35" x="354.150391"/>
      <use xlink:href="#DejaVuSans-46" x="417.773438"/>
      <use xlink:href="#DejaVuSans-41" x="466.167969"/>
      <use xlink:href="#DejaVuSans-37" x="534.576172"/>
      <use xlink:href="#DejaVuSans-31" x="598.199219"/>
      <use xlink:href="#DejaVuSans-4d" x="661.822266"/>
      <use xlink:href="#DejaVuSans-41" x="748.101562"/>
      <use xlink:href="#DejaVuSans-30" x="816.509766"/>
      <use xlink:href="#DejaVuSans-34" x="880.132812"/>
     </g>
    </g>
    <g id="line2d_11">
     <path d="M 24.878125 389.252587 
L 34.878125 389.252587 
L 44.878125 389.252587 
" style="fill: none; stroke: #2ca02c; stroke-width: 1.5; stroke-linecap: square"/>
    </g>
    <g id="text_13">
     <!-- c3_Cs71FA01MA28 -->
     <g transform="translate(52.878125 392.752587)scale(0.1 -0.1)">
      <defs>
       <path id="DejaVuSans-33" d="M 2597 2516 
Q 3050 2419 3304 2112 
Q 3559 1806 3559 1356 
Q 3559 666 3084 287 
Q 2609 -91 1734 -91 
Q 1441 -91 1130 -33 
Q 819 25 488 141 
L 488 750 
Q 750 597 1062 519 
Q 1375 441 1716 441 
Q 2309 441 2620 675 
Q 2931 909 2931 1356 
Q 2931 1769 2642 2001 
Q 2353 2234 1838 2234 
L 1294 2234 
L 1294 2753 
L 1863 2753 
Q 2328 2753 2575 2939 
Q 2822 3125 2822 3475 
Q 2822 3834 2567 4026 
Q 2313 4219 1838 4219 
Q 1578 4219 1281 4162 
Q 984 4106 628 3988 
L 628 4550 
Q 988 4650 1302 4700 
Q 1616 4750 1894 4750 
Q 2613 4750 3031 4423 
Q 3450 4097 3450 3541 
Q 3450 3153 3228 2886 
Q 3006 2619 2597 2516 
z
" transform="scale(0.015625)"/>
      </defs>
      <use xlink:href="#DejaVuSans-63"/>
      <use xlink:href="#DejaVuSans-33" x="54.980469"/>
      <use xlink:href="#DejaVuSans-5f" x="118.603516"/>
      <use xlink:href="#DejaVuSans-43" x="168.603516"/>
      <use xlink:href="#DejaVuSans-73" x="238.427734"/>
      <use xlink:href="#DejaVuSans-37" x="290.527344"/>
      <use xlink:href="#DejaVuSans-31" x="354.150391"/>
      <use xlink:href="#DejaVuSans-46" x="417.773438"/>
      <use xlink:href="#DejaVuSans-41" x="466.167969"/>
      <use xlink:href="#DejaVuSans-30" x="534.576172"/>
      <use xlink:href="#DejaVuSans-31" x="598.199219"/>
      <use xlink:href="#DejaVuSans-4d" x="661.822266"/>
      <use xlink:href="#DejaVuSans-41" x="748.101562"/>
      <use xlink:href="#DejaVuSans-32" x="816.509766"/>
      <use xlink:href="#DejaVuSans-38" x="880.132812"/>
     </g>
    </g>
   </g>
  </g>
  <g id="axes_2">
   <g id="patch_7">
    <path d="M 226.071875 287.136 
L 417.278125 287.136 
L 417.278125 7.2 
L 226.071875 7.2 
z
" style="fill: #ffffff"/>
   </g>
   <g id="PathCollection_7">
    <g clip-path="url(#p9a3e74fb3c)">
     <use xlink:href="#m54bf8f5d47" x="275.239196" y="42.192" style="fill: #0000ff; stroke: #0000ff"/>
    </g>
   </g>
   <g id="PathCollection_8">
    <g clip-path="url(#p9a3e74fb3c)">
     <use xlink:href="#m54bf8f5d47" x="275.239196" y="182.16" style="fill: #0000ff; stroke: #0000ff"/>
    </g>
   </g>
   <g id="PathCollection_9">
    <g clip-path="url(#p9a3e74fb3c)">
     <use xlink:href="#m54bf8f5d47" x="275.239196" y="252.144" style="fill: #0000ff; stroke: #0000ff"/>
    </g>
   </g>
   <g id="PathCollection_10">
    <g clip-path="url(#p9a3e74fb3c)">
     <use xlink:href="#m54bf8f5d47" x="362.647768" y="91.1808" style="fill: #0000ff; stroke: #0000ff"/>
    </g>
   </g>
   <g id="PathCollection_11">
    <g clip-path="url(#p9a3e74fb3c)">
     <use xlink:href="#m54bf8f5d47" x="362.647768" y="196.1568" style="fill: #0000ff; stroke: #0000ff"/>
    </g>
   </g>
   <g id="PathCollection_12">
    <g clip-path="url(#p9a3e74fb3c)">
     <use xlink:href="#m54bf8f5d47" x="362.647768" y="259.1424" style="fill: #0000ff; stroke: #0000ff"/>
    </g>
   </g>
   <g id="PathCollection_13">
    <g clip-path="url(#p9a3e74fb3c)">
     <use xlink:href="#m3f8f65453e" x="392.694464" y="63.1872" style="stroke: #000000"/>
    </g>
   </g>
   <g id="PathCollection_14">
    <g clip-path="url(#p9a3e74fb3c)">
     <use xlink:href="#m6383f10a0e" x="351.721696" y="182.16" style="fill: #b8860b; stroke: #b8860b"/>
    </g>
   </g>
   <g id="PathCollection_15">
    <g clip-path="url(#p9a3e74fb3c)">
     <use xlink:href="#m6383f10a0e" x="351.721696" y="252.144" style="fill: #b8860b; stroke: #b8860b"/>
    </g>
   </g>
   <g id="matplotlib.axis_3">
    <g id="xtick_5">
     <g id="line2d_12">
      <g>
       <use xlink:href="#m257c32c30a" x="226.071875" y="287.136" style="stroke: #000000; stroke-width: 0.8"/>
      </g>
     </g>
     <g id="text_14">
      <!-- 8 -->
      <g transform="translate(222.890625 301.734437)scale(0.1 -0.1)">
       <use xlink:href="#DejaVuSans-38"/>
      </g>
     </g>
    </g>
    <g id="xtick_6">
     <g id="line2d_13">
      <g>
       <use xlink:href="#m257c32c30a" x="280.702232" y="287.136" style="stroke: #000000; stroke-width: 0.8"/>
      </g>
     </g>
     <g id="text_15">
      <!-- 10 -->
      <g transform="translate(274.339732 301.734437)scale(0.1 -0.1)">
       <use xlink:href="#DejaVuSans-31"/>
       <use xlink:href="#DejaVuSans-30" x="63.623047"/>
      </g>
     </g>
    </g>
    <g id="xtick_7">
     <g id="line2d_14">
      <g>
       <use xlink:href="#m257c32c30a" x="335.332589" y="287.136" style="stroke: #000000; stroke-width: 0.8"/>
      </g>
     </g>
     <g id="text_16">
      <!-- 12 -->
      <g transform="translate(328.970089 301.734437)scale(0.1 -0.1)">
       <use xlink:href="#DejaVuSans-31"/>
       <use xlink:href="#DejaVuSans-32" x="63.623047"/>
      </g>
     </g>
    </g>
    <g id="xtick_8">
     <g id="line2d_15">
      <g>
       <use xlink:href="#m257c32c30a" x="389.962946" y="287.136" style="stroke: #000000; stroke-width: 0.8"/>
      </g>
     </g>
     <g id="text_17">
      <!-- 14 -->
      <g transform="translate(383.600446 301.734437)scale(0.1 -0.1)">
       <use xlink:href="#DejaVuSans-31"/>
       <use xlink:href="#DejaVuSans-34" x="63.623047"/>
      </g>
     </g>
    </g>
    <g id="text_18">
     <!-- 2$\Theta$ -->
     <g transform="translate(314.525 315.412562)scale(0.1 -0.1)">
      <use xlink:href="#DejaVuSans-32" transform="translate(0 0.78125)"/>
      <use xlink:href="#DejaVuSans-398" transform="translate(63.623047 0.78125)"/>
     </g>
    </g>
   </g>
   <g id="matplotlib.axis_4">
    <g id="ytick_10"/>
    <g id="ytick_11"/>
    <g id="ytick_12"/>
    <g id="ytick_13"/>
    <g id="ytick_14"/>
    <g id="ytick_15"/>
    <g id="ytick_16"/>
    <g id="ytick_17"/>
    <g id="ytick_18"/>
   </g>
   <g id="line2d_16">
    <path d="M 225.525571 277.905592 
L 226.071875 279.099179 
L 226.618179 278.024951 
L 227.164482 276.55286 
L 227.710786 278.34324 
L 228.257089 278.223882 
L 228.803393 278.621744 
L 229.349696 277.826019 
L 229.896 278.940034 
L 230.442304 279.019607 
L 231.534911 277.826019 
L 232.081214 278.184096 
L 232.627518 277.905592 
L 233.173821 278.303454 
L 233.720125 278.024951 
L 234.266429 278.024951 
L 234.812732 278.263668 
L 235.359036 277.666874 
L 235.905339 277.865806 
L 236.451643 278.701317 
L 236.997946 278.024951 
L 237.54425 278.024951 
L 238.090554 277.388371 
L 238.636857 278.66153 
L 239.183161 279.218538 
L 239.729464 278.184096 
L 240.275768 278.422813 
L 240.822071 277.905592 
L 241.368375 278.303454 
L 241.914679 278.303454 
L 242.460982 278.144309 
L 243.553589 278.223882 
L 244.099893 278.34324 
L 244.646196 278.621744 
L 245.1925 278.502385 
L 245.738804 278.542172 
L 246.285107 279.337897 
L 246.831411 277.865806 
L 247.377714 278.741103 
L 247.924018 279.258324 
L 248.470321 279.258324 
L 249.016625 279.138965 
L 250.109232 278.064737 
L 250.655536 278.780889 
L 251.201839 277.706661 
L 251.748143 278.184096 
L 252.294446 278.184096 
L 252.84075 278.581958 
L 253.387054 279.138965 
L 253.933357 277.269012 
L 254.479661 278.940034 
L 255.025964 277.348584 
L 255.572268 278.621744 
L 256.118571 277.985164 
L 256.664875 276.433501 
L 257.211179 277.030294 
L 257.757482 278.542172 
L 258.303786 279.417469 
L 258.850089 279.178752 
L 259.396393 277.507729 
L 259.942696 278.34324 
L 260.489 277.826019 
L 261.035304 277.149653 
L 261.581607 276.751791 
L 262.127911 277.706661 
L 262.674214 277.706661 
L 264.313125 275.677562 
L 264.859429 276.831363 
L 265.405732 275.637776 
L 265.952036 275.518417 
L 267.044643 273.489319 
L 267.590946 274.842051 
L 269.229857 272.852739 
L 269.776161 272.892525 
L 270.322464 270.465565 
L 270.868768 270.863427 
L 271.415071 270.584923 
L 271.961375 267.163306 
L 272.507679 268.476252 
L 273.053982 265.731002 
L 274.146589 262.229812 
L 274.692893 261.83195 
L 275.239196 264.457842 
L 275.7855 263.463186 
L 276.331804 263.4234 
L 277.424411 264.497628 
L 277.970714 266.845016 
L 278.517018 265.611643 
L 279.063321 269.470908 
L 279.609625 269.908557 
L 280.702232 271.380648 
L 281.248536 273.011884 
L 281.794839 275.995852 
L 282.341143 276.712005 
L 282.887446 276.87115 
L 283.43375 278.303454 
L 283.980054 277.507729 
L 284.526357 277.786233 
L 285.072661 279.497042 
L 285.618964 278.422813 
L 286.165268 279.735759 
L 286.711571 279.178752 
L 287.257875 279.815331 
L 287.804179 279.258324 
L 288.350482 279.29811 
L 288.896786 279.815331 
L 289.443089 279.576614 
L 289.989393 280.332553 
L 290.535696 280.093835 
L 291.082 280.332553 
L 291.628304 280.213194 
L 292.174607 278.780889 
L 293.267214 279.337897 
L 293.813518 278.860462 
L 294.359821 280.531484 
L 294.906125 280.491698 
L 295.452429 279.457255 
L 295.998732 279.695973 
L 296.545036 280.491698 
L 297.091339 280.611056 
L 297.637643 280.25298 
L 298.183946 280.093835 
L 298.73025 280.451911 
L 299.276554 280.25298 
L 299.822857 281.247636 
L 300.369161 279.735759 
L 300.915464 280.093835 
L 301.461768 281.685285 
L 302.008071 280.093835 
L 302.554375 280.372339 
L 303.100679 280.88956 
L 303.646982 279.894904 
L 304.193286 279.815331 
L 304.739589 280.25298 
L 305.285893 279.457255 
L 305.832196 280.491698 
L 306.3785 280.332553 
L 306.924804 280.451911 
L 307.471107 280.770201 
L 308.017411 281.406781 
L 308.563714 280.054049 
L 309.110018 280.133621 
L 310.202625 281.406781 
L 310.748929 279.695973 
L 311.295232 279.536828 
L 312.387839 280.133621 
L 312.934143 281.088491 
L 313.480446 279.974476 
L 314.02675 279.576614 
L 314.573054 280.451911 
L 315.119357 281.764857 
L 315.665661 280.650843 
L 316.211964 280.173408 
L 316.758268 280.809987 
L 317.304571 280.88956 
L 317.850875 280.650843 
L 318.397179 279.29811 
L 318.943482 281.366995 
L 319.489786 279.974476 
L 320.036089 280.213194 
L 320.582393 280.054049 
L 321.675 281.884216 
L 322.221304 281.048705 
L 322.767607 281.20785 
L 323.860214 280.650843 
L 324.406518 280.770201 
L 324.952821 280.412125 
L 325.499125 281.327209 
L 326.045429 279.576614 
L 327.138036 282.003575 
L 327.684339 281.008919 
L 328.776946 281.327209 
L 329.32325 282.321865 
L 330.415857 280.054049 
L 330.962161 281.168064 
L 331.508464 280.770201 
L 332.054768 280.690629 
L 332.601071 280.054049 
L 333.693679 281.685285 
L 334.239982 280.054049 
L 334.786286 280.611056 
L 335.878893 281.128277 
L 336.425196 281.287422 
L 336.9715 280.292766 
L 338.064107 281.048705 
L 338.610411 278.820675 
L 339.156714 279.93469 
L 339.703018 279.536828 
L 340.249321 280.491698 
L 340.795625 280.849774 
L 341.341929 279.775545 
L 341.888232 279.93469 
L 342.434536 279.417469 
L 342.980839 279.059393 
L 343.527143 278.900248 
L 344.073446 279.855118 
L 344.61975 277.348584 
L 345.166054 278.581958 
L 345.712357 278.741103 
L 346.258661 278.303454 
L 346.804964 277.030294 
L 347.351268 276.990508 
L 347.897571 275.558204 
L 348.443875 276.353928 
L 348.990179 275.677562 
L 349.536482 274.603334 
L 350.082786 272.216159 
L 350.629089 271.778511 
L 351.175393 270.744068 
L 351.721696 271.340862 
L 352.268 270.385992 
L 352.814304 269.908557 
L 353.360607 266.646085 
L 353.906911 267.919245 
L 354.453214 270.624709 
L 354.999518 270.903213 
L 355.545821 272.454877 
L 356.092125 273.011884 
L 356.638429 274.364616 
L 357.184732 273.728036 
L 357.731036 275.438845 
L 358.277339 274.64312 
L 358.823643 274.842051 
L 359.369946 274.165685 
L 359.91625 275.796921 
L 360.462554 275.120555 
L 361.008857 273.36996 
L 361.555161 272.614022 
L 362.101464 273.210815 
L 363.194071 271.738724 
L 363.740375 269.232191 
L 364.286679 269.908557 
L 364.832982 270.863427 
L 365.379286 270.027916 
L 365.925589 273.926968 
L 367.018196 276.274356 
L 368.657107 278.860462 
L 369.203411 279.29811 
L 369.749714 280.25298 
L 370.296018 280.133621 
L 370.842321 278.263668 
L 371.388625 280.412125 
L 371.934929 279.6164 
L 372.481232 280.57127 
L 373.027536 278.860462 
L 373.573839 279.457255 
L 374.120143 279.059393 
L 374.666446 278.422813 
L 375.21275 278.144309 
L 375.759054 278.502385 
L 376.305357 279.178752 
L 376.851661 277.865806 
L 377.397964 275.796921 
L 377.944268 275.120555 
L 378.490571 275.2797 
L 379.036875 274.483975 
L 379.583179 274.245258 
L 380.129482 273.330174 
L 380.675786 270.425778 
L 381.222089 270.067702 
L 381.768393 267.919245 
L 382.314696 266.248223 
L 382.861 263.304041 
L 383.407304 262.906179 
L 383.953607 258.052257 
L 384.499911 254.749999 
L 385.046214 250.572443 
L 386.138821 244.564721 
L 387.231429 230.002956 
L 387.777732 226.183477 
L 388.324036 224.790958 
L 388.870339 218.146656 
L 389.416643 217.152 
L 389.962946 223.239295 
L 392.148161 259.086699 
L 392.694464 266.009505 
L 393.787071 272.73338 
L 394.333375 274.165685 
L 394.879679 277.467943 
L 395.425982 278.064737 
L 395.972286 279.337897 
L 396.518589 279.019607 
L 397.064893 279.337897 
L 397.611196 280.611056 
L 398.1575 280.611056 
L 398.703804 281.048705 
L 399.250107 280.611056 
L 399.796411 281.20785 
L 400.342714 281.048705 
L 400.889018 281.406781 
L 401.435321 281.128277 
L 401.981625 281.486354 
L 402.527929 282.560582 
L 403.074232 282.122933 
L 403.620536 281.486354 
L 404.166839 281.327209 
L 404.713143 281.764857 
L 405.259446 281.963789 
L 405.80575 280.969132 
L 406.352054 282.401437 
L 406.898357 282.16272 
L 407.444661 281.764857 
L 407.990964 281.725071 
L 408.537268 281.884216 
L 409.083571 283.11759 
L 409.629875 281.446567 
L 410.176179 282.759513 
L 410.722482 281.84443 
L 411.268786 281.924002 
L 411.815089 282.600368 
L 412.361393 281.804644 
L 412.907696 281.963789 
L 413.454 282.361651 
L 414.000304 281.725071 
L 414.546607 283.038017 
L 415.092911 281.84443 
L 415.639214 282.759513 
L 416.185518 282.321865 
L 416.731821 281.486354 
L 417.278125 282.640155 
L 417.824429 283.038017 
L 417.824429 283.038017 
" clip-path="url(#p9a3e74fb3c)" style="fill: none; stroke: #52aae7; stroke-width: 1.5; stroke-linecap: square"/>
   </g>
   <g id="line2d_17">
    <path d="M 225.525571 210.902487 
L 226.071875 211.772672 
L 226.618179 211.403503 
L 227.164482 210.559687 
L 227.710786 211.640826 
L 228.257089 211.271656 
L 228.803393 210.665164 
L 229.349696 211.060702 
L 229.896 210.849748 
L 230.442304 211.588087 
L 230.988607 210.876118 
L 231.534911 211.324395 
L 232.081214 210.717902 
L 232.627518 211.087072 
L 233.173821 210.849748 
L 233.720125 211.060702 
L 234.266429 210.770641 
L 234.812732 210.744271 
L 236.997946 211.48261 
L 237.54425 212.405534 
L 238.090554 211.535349 
L 238.636857 211.719934 
L 239.729464 211.298026 
L 240.275768 211.456241 
L 240.822071 211.403503 
L 241.368375 211.878149 
L 241.914679 211.983626 
L 242.460982 211.350764 
L 243.007286 211.693564 
L 243.553589 211.324395 
L 244.099893 211.298026 
L 244.646196 211.746303 
L 245.1925 211.588087 
L 246.285107 211.456241 
L 246.831411 211.772672 
L 247.377714 211.640826 
L 247.924018 211.034333 
L 249.016625 211.429872 
L 249.562929 211.878149 
L 250.109232 211.377133 
L 250.655536 211.799041 
L 251.201839 210.849748 
L 252.294446 212.141842 
L 252.84075 211.983626 
L 253.387054 211.693564 
L 253.933357 211.271656 
L 254.479661 211.719934 
L 255.572268 211.719934 
L 256.118571 211.324395 
L 256.664875 211.166179 
L 257.211179 211.218918 
L 257.757482 211.48261 
L 258.303786 211.983626 
L 258.850089 211.667195 
L 259.396393 211.693564 
L 259.942696 211.218918 
L 260.489 211.719934 
L 261.035304 211.614457 
L 261.581607 211.245287 
L 262.127911 211.271656 
L 262.674214 211.50898 
L 263.220518 210.928856 
L 263.766821 211.878149 
L 264.313125 210.902487 
L 264.859429 210.928856 
L 265.405732 210.586056 
L 265.952036 210.506948 
L 266.498339 211.087072 
L 267.044643 210.981595 
L 267.590946 210.269625 
L 268.13725 210.375102 
L 268.683554 209.979563 
L 269.229857 209.979563 
L 269.776161 209.003901 
L 270.322464 208.687469 
L 270.868768 209.083008 
L 271.415071 208.371038 
L 271.961375 208.819316 
L 272.507679 207.60633 
L 273.053982 207.421745 
L 273.600286 208.291931 
L 274.146589 206.709775 
L 274.692893 206.947099 
L 275.239196 204.78482 
L 275.7855 205.523159 
L 276.331804 207.078945 
L 276.878107 205.734113 
L 277.424411 206.156021 
L 278.517018 208.265561 
L 279.063321 208.713839 
L 279.609625 208.924793 
L 280.702232 210.111409 
L 281.248536 210.42784 
L 281.794839 211.087072 
L 282.341143 211.245287 
L 282.887446 211.983626 
L 283.43375 211.403503 
L 283.980054 212.115472 
L 284.526357 211.878149 
L 285.072661 211.087072 
L 285.618964 212.089103 
L 286.165268 212.379165 
L 286.711571 212.19458 
L 287.257875 212.642858 
L 287.804179 212.669227 
L 288.350482 212.511011 
L 288.896786 212.484642 
L 289.443089 212.22095 
L 289.989393 212.56375 
L 290.535696 212.168211 
L 291.082 212.721965 
L 292.174607 212.590119 
L 292.720911 212.247319 
L 293.267214 212.642858 
L 293.813518 212.511011 
L 294.359821 213.012027 
L 294.906125 212.352796 
L 295.452429 212.880181 
L 295.998732 212.19458 
L 296.545036 213.381197 
L 297.091339 212.721965 
L 297.637643 211.772672 
L 298.183946 212.827442 
L 298.73025 213.064766 
L 299.276554 212.695596 
L 300.369161 213.328458 
L 300.915464 212.642858 
L 301.461768 212.774704 
L 302.008071 212.748335 
L 302.554375 212.009995 
L 303.100679 212.880181 
L 303.646982 212.590119 
L 304.193286 213.196612 
L 304.739589 212.168211 
L 305.285893 212.932919 
L 306.3785 212.959289 
L 306.924804 212.590119 
L 307.471107 212.669227 
L 308.017411 212.300057 
L 309.110018 212.853812 
L 309.656321 212.300057 
L 310.202625 212.932919 
L 310.748929 212.458273 
L 311.295232 212.932919 
L 311.841536 212.115472 
L 312.387839 212.458273 
L 312.934143 213.486674 
L 313.480446 212.748335 
L 314.02675 212.90655 
L 314.573054 212.247319 
L 315.119357 213.222981 
L 315.665661 212.405534 
L 316.211964 212.90655 
L 316.758268 212.853812 
L 317.850875 212.115472 
L 318.397179 212.853812 
L 318.943482 212.90655 
L 320.036089 213.170243 
L 320.582393 213.038396 
L 321.128696 213.539412 
L 321.675 213.170243 
L 322.767607 212.695596 
L 323.313911 212.115472 
L 324.406518 213.302089 
L 324.952821 213.328458 
L 325.499125 212.959289 
L 326.045429 213.143873 
L 326.591732 212.352796 
L 327.138036 213.117504 
L 327.684339 212.511011 
L 328.776946 212.405534 
L 329.32325 212.616488 
L 329.869554 212.379165 
L 330.415857 212.748335 
L 330.962161 212.695596 
L 331.508464 212.827442 
L 332.054768 212.22095 
L 332.601071 212.247319 
L 333.147375 212.827442 
L 333.693679 212.062734 
L 334.239982 212.616488 
L 335.332589 212.537381 
L 335.878893 212.616488 
L 336.425196 213.196612 
L 336.9715 213.27572 
L 337.517804 213.064766 
L 338.064107 211.983626 
L 338.610411 212.511011 
L 339.156714 212.247319 
L 339.703018 212.616488 
L 340.249321 212.431904 
L 340.795625 212.721965 
L 341.341929 211.192549 
L 341.888232 212.326427 
L 342.434536 212.036365 
L 342.980839 211.588087 
L 343.527143 211.535349 
L 344.61975 210.849748 
L 345.166054 210.876118 
L 345.712357 210.506948 
L 346.258661 209.689501 
L 346.804964 209.214855 
L 347.351268 209.847717 
L 347.897571 207.316268 
L 348.443875 207.843653 
L 348.990179 207.369007 
L 350.629089 203.571834 
L 351.175393 203.070818 
L 351.721696 200.486631 
L 352.268 201.673248 
L 352.814304 201.541402 
L 353.360607 202.411587 
L 353.906911 201.778725 
L 354.453214 202.807126 
L 354.999518 203.36088 
L 355.545821 206.103283 
L 356.092125 206.366975 
L 356.638429 206.788883 
L 357.184732 208.502885 
L 357.731036 209.425809 
L 358.277339 209.610393 
L 358.823643 211.034333 
L 359.369946 209.452178 
L 359.91625 210.744271 
L 360.462554 209.584024 
L 361.008857 210.348732 
L 362.647768 208.687469 
L 363.194071 209.346701 
L 363.740375 208.291931 
L 364.286679 209.162116 
L 364.832982 208.581992 
L 365.379286 208.634731 
L 365.925589 209.900455 
L 366.471893 210.243255 
L 367.018196 210.955225 
L 367.5645 211.060702 
L 368.110804 212.036365 
L 368.657107 211.535349 
L 369.203411 211.535349 
L 369.749714 212.379165 
L 370.296018 211.772672 
L 370.842321 211.772672 
L 371.388625 212.22095 
L 371.934929 211.298026 
L 372.481232 211.561718 
L 373.573839 210.058671 
L 374.120143 210.638794 
L 374.666446 210.243255 
L 375.21275 210.295994 
L 375.759054 208.476515 
L 376.305357 208.766577 
L 376.851661 208.529254 
L 377.397964 206.235129 
L 377.944268 206.235129 
L 378.490571 205.49679 
L 379.036875 205.364943 
L 380.129482 201.198601 
L 380.675786 200.750324 
L 381.222089 198.667153 
L 381.768393 195.845643 
L 382.314696 194.606288 
L 382.861 191.441977 
L 383.407304 189.807084 
L 383.953607 185.034249 
L 384.499911 182.52917 
L 385.046214 174.855717 
L 386.685125 160.484473 
L 387.231429 152.890128 
L 387.777732 150.305941 
L 388.324036 147.168 
L 388.870339 150.991542 
L 391.055554 186.616404 
L 391.601857 194.210749 
L 392.694464 203.36088 
L 393.240768 205.101251 
L 393.787071 207.870023 
L 394.333375 208.608362 
L 394.879679 209.584024 
L 395.425982 211.13981 
L 395.972286 211.218918 
L 396.518589 211.799041 
L 397.064893 212.009995 
L 397.611196 213.803105 
L 398.1575 212.115472 
L 398.703804 213.486674 
L 399.250107 213.091135 
L 399.796411 213.064766 
L 400.342714 212.405534 
L 400.889018 213.354827 
L 401.435321 213.592151 
L 401.981625 213.012027 
L 403.620536 213.750366 
L 404.713143 213.27572 
L 405.259446 213.98769 
L 405.80575 212.90655 
L 406.352054 213.644889 
L 406.898357 213.381197 
L 407.444661 213.776735 
L 407.990964 213.855843 
L 408.537268 214.119536 
L 409.083571 213.565781 
L 409.629875 213.433935 
L 410.176179 213.803105 
L 411.268786 213.882213 
L 411.815089 213.302089 
L 412.361393 214.040428 
L 412.907696 213.671258 
L 413.454 213.61852 
L 414.000304 213.407566 
L 414.546607 213.882213 
L 415.639214 214.33049 
L 416.185518 213.750366 
L 416.731821 213.908582 
L 417.278125 214.356859 
L 417.824429 214.304121 
L 417.824429 214.304121 
" clip-path="url(#p9a3e74fb3c)" style="fill: none; stroke: #ffb241; stroke-width: 1.5; stroke-linecap: square"/>
   </g>
   <g id="line2d_18">
    <path d="M 224.979268 128.614102 
L 226.071875 126.986567 
L 227.164482 129.373619 
L 228.257089 127.09507 
L 229.349696 130.458642 
L 230.442304 130.241637 
L 231.534911 129.699126 
L 232.627518 130.241637 
L 233.720125 130.35014 
L 234.812732 130.133135 
L 235.905339 128.939609 
L 236.997946 128.071591 
L 238.090554 128.831107 
L 239.183161 128.722605 
L 240.275768 131.32666 
L 241.368375 127.637581 
L 242.460982 129.265116 
L 243.553589 131.32666 
L 244.646196 131.977674 
L 245.738804 128.5056 
L 246.831411 127.746084 
L 247.924018 127.420577 
L 249.016625 130.241637 
L 250.109232 132.086177 
L 251.201839 129.699126 
L 252.294446 131.652167 
L 253.387054 129.156614 
L 254.479661 129.048112 
L 255.572268 130.024633 
L 256.664875 129.373619 
L 257.757482 128.288595 
L 259.942696 124.382512 
L 261.035304 126.878065 
L 262.127911 126.878065 
L 263.220518 123.080484 
L 264.313125 121.235944 
L 265.405732 122.646474 
L 266.498339 119.391405 
L 267.590946 113.966288 
L 268.683554 111.145228 
L 269.776161 106.371126 
L 270.868768 102.35654 
L 271.961375 89.878772 
L 273.053982 81.958102 
L 274.146589 77.184 
L 276.331804 84.67066 
L 277.424411 91.506307 
L 279.609625 106.371126 
L 280.702232 112.447256 
L 281.794839 121.235944 
L 282.887446 125.576037 
L 283.980054 129.156614 
L 285.072661 128.180093 
L 286.165268 129.482121 
L 287.257875 128.180093 
L 288.350482 132.737191 
L 290.535696 131.76067 
L 291.628304 130.784149 
L 292.720911 132.411684 
L 293.813518 131.543665 
L 294.906125 133.279702 
L 295.998732 133.822214 
L 297.091339 135.01574 
L 298.183946 130.892651 
L 299.276554 132.303181 
L 300.369161 134.690233 
L 301.461768 133.930716 
L 302.554375 134.364726 
L 303.646982 132.520186 
L 304.739589 133.605209 
L 305.832196 132.954195 
L 306.924804 135.01574 
L 308.017411 131.977674 
L 309.110018 134.256223 
L 310.202625 135.232744 
L 311.295232 133.062698 
L 312.387839 134.58173 
L 313.480446 135.124242 
L 314.573054 134.473228 
L 316.758268 134.473228 
L 317.850875 133.279702 
L 318.943482 136.534772 
L 320.036089 133.713712 
L 321.128696 135.232744 
L 323.313911 133.822214 
L 324.406518 135.01574 
L 325.499125 135.558251 
L 326.591732 134.798735 
L 327.684339 136.317767 
L 328.776946 135.124242 
L 329.869554 136.317767 
L 330.962161 134.907237 
L 332.054768 134.907237 
L 333.147375 132.628688 
L 334.239982 136.42627 
L 335.332589 135.341247 
L 336.425196 135.341247 
L 337.517804 134.58173 
L 338.610411 134.039219 
L 339.703018 135.666753 
L 340.795625 133.496707 
L 341.888232 132.737191 
L 342.980839 133.930716 
L 344.073446 132.411684 
L 345.166054 133.1712 
L 347.351268 130.024633 
L 348.443875 129.482121 
L 349.536482 123.514493 
L 350.629089 121.886958 
L 351.721696 116.787349 
L 352.814304 116.895851 
L 353.906911 117.438363 
L 354.999518 113.206772 
L 356.092125 118.523386 
L 357.184732 119.716912 
L 359.369946 114.074791 
L 360.462554 114.617302 
L 362.647768 97.69094 
L 363.740375 109.300688 
L 364.832982 112.447256 
L 365.925589 118.414884 
L 367.018196 126.444056 
L 368.110804 131.543665 
L 369.203411 129.373619 
L 371.388625 134.147721 
L 372.481232 132.954195 
L 373.573839 135.558251 
L 374.666446 134.364726 
L 375.759054 134.690233 
L 376.851661 133.496707 
L 377.944268 132.954195 
L 379.036875 135.124242 
L 380.129482 134.256223 
L 381.222089 134.798735 
L 382.314696 134.690233 
L 383.407304 133.822214 
L 384.499911 132.628688 
L 385.592518 130.024633 
L 386.685125 127.963088 
L 387.777732 127.312074 
L 388.870339 123.405991 
L 389.962946 118.414884 
L 391.055554 111.796242 
L 392.148161 107.347647 
L 393.240768 92.699833 
L 394.333375 87.600223 
L 395.425982 90.529786 
L 397.611196 106.913637 
L 398.703804 118.631888 
L 399.796411 126.118549 
L 400.889018 132.194679 
L 401.981625 131.652167 
L 403.074232 135.124242 
L 404.166839 136.209265 
L 405.259446 134.256223 
L 406.352054 135.558251 
L 407.444661 133.605209 
L 408.537268 136.100763 
L 409.629875 136.968781 
L 410.722482 137.294288 
L 411.815089 138.813321 
L 412.907696 139.030326 
L 414.000304 136.643274 
L 416.185518 138.270809 
L 417.278125 137.8368 
L 418.370732 137.8368 
L 418.370732 137.8368 
" clip-path="url(#p9a3e74fb3c)" style="fill: none; stroke: #5fd35f; stroke-width: 1.5; stroke-linecap: square"/>
   </g>
   <g id="line2d_19">
    <path d="M 392.694464 287.136 
L 392.694464 7.2 
" clip-path="url(#p9a3e74fb3c)" style="fill: none; stroke-dasharray: 2.96,1.28; stroke-dashoffset: 0; stroke: #000000; stroke-width: 0.8"/>
   </g>
   <g id="patch_8">
    <path d="M 226.071875 287.136 
L 226.071875 7.2 
" style="fill: none; stroke: #000000; stroke-width: 0.8; stroke-linejoin: miter; stroke-linecap: square"/>
   </g>
   <g id="patch_9">
    <path d="M 417.278125 287.136 
L 417.278125 7.2 
" style="fill: none; stroke: #000000; stroke-width: 0.8; stroke-linejoin: miter; stroke-linecap: square"/>
   </g>
   <g id="patch_10">
    <path d="M 226.071875 287.136 
L 417.278125 287.136 
" style="fill: none; stroke: #000000; stroke-width: 0.8; stroke-linejoin: miter; stroke-linecap: square"/>
   </g>
   <g id="patch_11">
    <path d="M 226.071875 7.2 
L 417.278125 7.2 
" style="fill: none; stroke: #000000; stroke-width: 0.8; stroke-linejoin: miter; stroke-linecap: square"/>
   </g>
   <g id="legend_2">
    <g id="line2d_20">
     <path d="M 230.071875 359.340087 
L 240.071875 359.340087 
L 250.071875 359.340087 
" style="fill: none; stroke: #52aae7; stroke-width: 1.5; stroke-linecap: square"/>
    </g>
    <g id="text_19">
     <!-- r1_Cs67FA24MA10 -->
     <g transform="translate(258.071875 362.840087)scale(0.1 -0.1)">
      <defs>
       <path id="DejaVuSans-36" d="M 2113 2584 
Q 1688 2584 1439 2293 
Q 1191 2003 1191 1497 
Q 1191 994 1439 701 
Q 1688 409 2113 409 
Q 2538 409 2786 701 
Q 3034 994 3034 1497 
Q 3034 2003 2786 2293 
Q 2538 2584 2113 2584 
z
M 3366 4563 
L 3366 3988 
Q 3128 4100 2886 4159 
Q 2644 4219 2406 4219 
Q 1781 4219 1451 3797 
Q 1122 3375 1075 2522 
Q 1259 2794 1537 2939 
Q 1816 3084 2150 3084 
Q 2853 3084 3261 2657 
Q 3669 2231 3669 1497 
Q 3669 778 3244 343 
Q 2819 -91 2113 -91 
Q 1303 -91 875 529 
Q 447 1150 447 2328 
Q 447 3434 972 4092 
Q 1497 4750 2381 4750 
Q 2619 4750 2861 4703 
Q 3103 4656 3366 4563 
z
" transform="scale(0.015625)"/>
      </defs>
      <use xlink:href="#DejaVuSans-72"/>
      <use xlink:href="#DejaVuSans-31" x="41.113281"/>
      <use xlink:href="#DejaVuSans-5f" x="104.736328"/>
      <use xlink:href="#DejaVuSans-43" x="154.736328"/>
      <use xlink:href="#DejaVuSans-73" x="224.560547"/>
      <use xlink:href="#DejaVuSans-36" x="276.660156"/>
      <use xlink:href="#DejaVuSans-37" x="340.283203"/>
      <use xlink:href="#DejaVuSans-46" x="403.90625"/>
      <use xlink:href="#DejaVuSans-41" x="452.300781"/>
      <use xlink:href="#DejaVuSans-32" x="520.708984"/>
      <use xlink:href="#DejaVuSans-34" x="584.332031"/>
      <use xlink:href="#DejaVuSans-4d" x="647.955078"/>
      <use xlink:href="#DejaVuSans-41" x="734.234375"/>
      <use xlink:href="#DejaVuSans-31" x="802.642578"/>
      <use xlink:href="#DejaVuSans-30" x="866.265625"/>
     </g>
    </g>
    <g id="line2d_21">
     <path d="M 230.071875 374.296337 
L 240.071875 374.296337 
L 250.071875 374.296337 
" style="fill: none; stroke: #ffb241; stroke-width: 1.5; stroke-linecap: square"/>
    </g>
    <g id="text_20">
     <!-- r2_Cs37FA62MA01 -->
     <g transform="translate(258.071875 377.796337)scale(0.1 -0.1)">
      <use xlink:href="#DejaVuSans-72"/>
      <use xlink:href="#DejaVuSans-32" x="41.113281"/>
      <use xlink:href="#DejaVuSans-5f" x="104.736328"/>
      <use xlink:href="#DejaVuSans-43" x="154.736328"/>
      <use xlink:href="#DejaVuSans-73" x="224.560547"/>
      <use xlink:href="#DejaVuSans-33" x="276.660156"/>
      <use xlink:href="#DejaVuSans-37" x="340.283203"/>
      <use xlink:href="#DejaVuSans-46" x="403.90625"/>
      <use xlink:href="#DejaVuSans-41" x="452.300781"/>
      <use xlink:href="#DejaVuSans-36" x="520.708984"/>
      <use xlink:href="#DejaVuSans-32" x="584.332031"/>
      <use xlink:href="#DejaVuSans-4d" x="647.955078"/>
      <use xlink:href="#DejaVuSans-41" x="734.234375"/>
      <use xlink:href="#DejaVuSans-30" x="802.642578"/>
      <use xlink:href="#DejaVuSans-31" x="866.265625"/>
     </g>
    </g>
    <g id="line2d_22">
     <path d="M 230.071875 389.252587 
L 240.071875 389.252587 
L 250.071875 389.252587 
" style="fill: none; stroke: #5fd35f; stroke-width: 1.5; stroke-linecap: square"/>
    </g>
    <g id="text_21">
     <!-- r3_Cs75FA0MA25 -->
     <g transform="translate(258.071875 392.752587)scale(0.1 -0.1)">
      <use xlink:href="#DejaVuSans-72"/>
      <use xlink:href="#DejaVuSans-33" x="41.113281"/>
      <use xlink:href="#DejaVuSans-5f" x="104.736328"/>
      <use xlink:href="#DejaVuSans-43" x="154.736328"/>
      <use xlink:href="#DejaVuSans-73" x="224.560547"/>
      <use xlink:href="#DejaVuSans-37" x="276.660156"/>
      <use xlink:href="#DejaVuSans-35" x="340.283203"/>
      <use xlink:href="#DejaVuSans-46" x="403.90625"/>
      <use xlink:href="#DejaVuSans-41" x="452.300781"/>
      <use xlink:href="#DejaVuSans-30" x="520.708984"/>
      <use xlink:href="#DejaVuSans-4d" x="584.332031"/>
      <use xlink:href="#DejaVuSans-41" x="670.611328"/>
      <use xlink:href="#DejaVuSans-32" x="739.019531"/>
      <use xlink:href="#DejaVuSans-35" x="802.642578"/>
     </g>
    </g>
   </g>
  </g>
 </g>
 <defs>
  <clipPath id="p827c7659a8">
   <rect x="20.878125" y="7.2" width="191.20625" height="279.936"/>
  </clipPath>
  <clipPath id="p9a3e74fb3c">
   <rect x="226.071875" y="7.2" width="191.20625" height="279.936"/>
  </clipPath>
 </defs>
</svg>
